HIERARCHY
ROOT Hips
{
	OFFSET -0.179506 -22.333345 2.821913
	CHANNELS 6 Xposition Yposition Zposition Zrotation Yrotation Xrotation 
	JOINT LeftUpLeg
	{
		OFFSET 6.951974 -9.140623 -0.681533
		CHANNELS 3 Zrotation Yrotation Xrotation
		JOINT LeftLeg
		{
			OFFSET 3.427654 -37.519855 -0.449580
			CHANNELS 3 Zrotation Yrotation Xrotation
			JOINT LeftFoot
			{
				OFFSET -1.359570 -39.796059 -4.369333
				CHANNELS 3 Zrotation Yrotation Xrotation
				JOINT LeftToe
				{
					OFFSET 2.635814 -5.579078 11.928840
					CHANNELS 3 Zrotation Yrotation Xrotation
					End Site
					{
						OFFSET 0.000000 0.000000 0.000000
					}
				}
			}
		}
	}
	JOINT RightUpLeg
	{
		OFFSET -6.767048 -9.052170 -0.431982
		CHANNELS 3 Zrotation Yrotation Xrotation
		JOINT RightLeg
		{
			OFFSET -3.829005 -38.256897 -0.885003
			CHANNELS 3 Zrotation Yrotation Xrotation
			JOINT RightFoot
			{
				OFFSET 1.577377 -39.841461 -4.231180
				CHANNELS 3 Zrotation Yrotation Xrotation
				JOINT RightToe
				{
					OFFSET -2.537174 -4.814398 12.334795
					CHANNELS 3 Zrotation Yrotation Xrotation
					End Site
					{
						OFFSET 0.000000 0.000000 0.000000
					}
				}
			}
		}
	}
	JOINT Spine
	{
		OFFSET -0.253288 10.896323 -2.669631
		CHANNELS 3 Zrotation Yrotation Xrotation
		JOINT Spine1
		{
			OFFSET 0.548704 13.518043 0.109247
			CHANNELS 3 Zrotation Yrotation Xrotation
			JOINT Spine2
			{
				OFFSET 0.145701 5.292222 2.542457
				CHANNELS 3 Zrotation Yrotation Xrotation
				JOINT Neck
				{
					OFFSET -0.277840 21.387037 -4.285703
					CHANNELS 3 Zrotation Yrotation Xrotation
					JOINT Head
					{
						OFFSET 0.515184 6.496960 5.134897
						CHANNELS 3 Zrotation Yrotation Xrotation
						End Site
						{
							OFFSET 0.000000 0.000000 0.000000
						}
					}
				}
				JOINT LeftShoulder
				{
					OFFSET 7.884473 12.174932 -3.408961
					CHANNELS 3 Zrotation Yrotation Xrotation
					JOINT LeftArm
					{
						OFFSET 9.097692 3.046888 -0.886815
						CHANNELS 3 Zrotation Yrotation Xrotation
						JOINT LeftForeArm
						{
							OFFSET 25.961220 -1.277207 -2.745643
							CHANNELS 3 Zrotation Yrotation Xrotation
							JOINT LeftHand
							{
								OFFSET 24.923361 0.898606 -0.117091
								CHANNELS 3 Zrotation Yrotation Xrotation
								End Site
								{
									OFFSET 0.000000 0.000000 0.000000
								}
							}
						}
					}
				}
				JOINT RightShoulder
				{
					OFFSET -8.175920 11.883285 -3.861528
					CHANNELS 3 Zrotation Yrotation Xrotation
					JOINT RightArm
					{
						OFFSET -9.601238 3.255117 -0.914307
						CHANNELS 3 Zrotation Yrotation Xrotation
						JOINT RightForeArm
						{
							OFFSET -25.374195 -1.332924 -2.140099
							CHANNELS 3 Zrotation Yrotation Xrotation
							JOINT RightHand
							{
								OFFSET -25.529810 0.777228 -0.555919
								CHANNELS 3 Zrotation Yrotation Xrotation
								End Site
								{
									OFFSET 0.000000 0.000000 0.000000
								}
							}
						}
					}
				}
			}
		}
	}
}
MOTION
Frames: 15
Frame Time: 0.033333
28.109747 62.875496 96.531128 -54.493510 2.719124 86.416909 0.330332 -0.563237 -3.380389 -0.679367 -3.091033 8.701145 -3.771784 8.332379 -2.513708 nan nan nan 0.949722 1.376239 -8.875389 1.855886 0.787482 11.870109 7.748092 -1.809608 2.565996 nan nan nan -2.510195 -1.498435 3.422655 5.652676 -5.118924 4.524272 2.469657 -4.232240 -2.732658 1.416005 0.487273 20.785627 1.391803 -2.587052 8.635433 -15.757012 12.279733 -2.998596 -68.562622 -19.756839 15.193801 33.777673 -41.436625 -39.335596 -8.128638 -26.474690 -7.821581 12.816780 -16.792288 -0.064224 64.220799 -7.262099 6.789487 -11.171115 26.860659 -12.937425 11.241444 15.228729 -17.355788 
27.923666 62.791061 96.559998 -54.209454 2.744424 86.646613 0.381835 -0.696501 -3.598626 -0.700718 -3.149830 8.911670 -3.961325 8.292894 -2.659055 nan nan nan 0.932863 1.209757 -8.694966 1.972326 0.770167 11.272445 7.514114 -2.074729 2.989122 nan nan nan -2.326609 -1.442201 3.550805 5.623280 -5.162599 4.205387 2.370295 -4.183271 -2.744908 1.356675 0.376803 20.745820 1.371142 -2.654672 8.855849 -15.907509 12.432803 -2.873244 -68.662779 -19.488520 15.269736 33.446692 -41.565556 -39.049828 -8.688555 -26.400531 -7.538746 12.797067 -16.986518 -0.194110 64.380690 -7.403914 6.571840 -11.246883 26.703309 -12.982573 11.767126 15.134720 -17.001023 
27.716667 62.717037 96.587776 -54.000113 2.775048 86.833261 0.454257 -0.710152 -3.716222 -0.714175 -3.332674 9.059008 -4.011738 8.318838 -3.011378 nan nan nan 0.931820 1.078190 -8.469032 2.125912 0.803325 10.691135 7.367028 -2.304743 3.321789 nan nan nan -2.189021 -1.396760 3.637384 5.627308 -5.158330 4.026180 2.303003 -4.142151 -2.801302 1.346147 0.338756 20.824472 1.254025 -2.618301 8.945153 -15.893866 12.573177 -2.714770 -68.924265 -19.138962 15.480851 33.036292 -41.523662 -38.274329 -8.752010 -26.512496 -7.992376 12.615305 -17.115953 -0.324951 64.713181 -7.590394 6.611481 -11.349650 26.483429 -12.756298 11.590573 15.140383 -17.290204 
27.492805 62.638325 96.620354 -53.868183 2.857680 86.993896 0.580051 -0.635757 -3.754400 -0.698268 -3.530110 9.113198 -4.059376 8.324066 -3.297009 nan nan nan 1.027685 0.973469 -8.196364 2.188699 0.859922 10.167095 7.409447 -2.381670 3.411226 nan nan nan -2.092418 -1.310074 3.509347 5.660783 -5.105205 4.101849 2.270042 -4.066739 -2.803811 1.432892 0.212931 20.848018 1.132346 -2.729382 9.027134 -15.813417 12.679277 -2.615338 -69.336123 -18.807746 15.753110 32.558257 -41.321218 -37.296386 -8.618914 -26.578724 -8.432213 12.436060 -17.115911 -0.439001 64.956549 -7.792686 6.834928 -11.394857 26.311215 -12.373643 11.299941 15.292310 -17.813864 
27.281214 62.560966 96.656975 -53.868798 2.950665 87.108170 0.740210 -0.549750 -3.678855 -0.718987 -3.669939 9.035970 -4.194872 8.342456 -3.494751 nan nan nan 1.119293 0.879390 -7.875256 2.208706 0.936794 9.640095 7.614087 -2.260513 3.472158 nan nan nan -1.962179 -1.239684 3.373125 5.698923 -5.025773 4.193579 2.186191 -3.952026 -2.698247 1.572062 0.208955 20.799935 1.053616 -2.878013 9.162286 -15.724692 12.964001 -2.597601 -69.791724 -18.556835 16.078508 31.877430 -41.029330 -36.184037 -8.191243 -26.615437 -8.897982 12.422726 -17.124045 -0.454845 65.025432 -7.710546 7.033270 -11.363302 26.269344 -12.408697 10.871547 15.390279 -18.375147 
27.075167 62.473232 96.689598 -53.934570 2.979821 87.235847 0.813057 -0.490875 -3.595688 -0.703494 -3.659039 8.908586 -4.213995 8.355955 -3.679372 nan nan nan 1.143672 0.826782 -7.605872 2.208636 0.875262 9.154127 7.815543 -1.982898 3.520792 nan nan nan -1.877439 -1.188872 3.242294 5.733710 -4.935241 4.301310 2.120444 -3.890405 -2.614183 1.693777 0.359813 20.838348 1.012219 -2.871485 9.091782 -15.549036 13.381246 -2.552448 -70.326370 -18.243397 16.323686 31.170844 -40.695453 -35.412612 -8.344702 -26.552574 -9.114044 12.360539 -17.148921 -0.194833 65.052394 -7.353375 7.174563 -11.290312 26.367475 -12.658029 10.922542 15.399204 -18.776675 
26.859261 62.389729 96.725304 -53.935382 2.965049 87.291949 0.822773 -0.459452 -3.453206 -0.686850 -3.767252 8.846494 -4.179805 8.396468 -3.787436 nan nan nan 1.096559 0.686704 -7.323523 2.330489 0.852084 8.799393 7.887669 -1.835214 3.550951 nan nan nan -1.826937 -1.092247 3.252002 5.750034 -4.843033 4.344239 2.064669 -3.884910 -2.561096 1.699849 0.367511 20.925759 0.962961 -2.810850 8.954887 -15.381129 13.748078 -2.433396 -70.766543 -17.910748 16.475577 30.363581 -40.402642 -34.751401 -8.413896 -26.514700 -9.338218 12.285997 -17.280986 -0.001018 65.185485 -6.960187 7.227570 -11.267902 26.320026 -12.716641 10.891378 15.406690 -18.926492 
26.642612 62.327999 96.748016 -53.923493 2.954977 87.463331 0.857469 -0.412773 -3.468159 -0.663801 -3.864002 8.805930 -4.220325 8.394377 -3.801877 nan nan nan 1.081041 0.556632 -7.211385 2.407898 0.835378 8.506251 8.004897 -1.819759 3.542823 nan nan nan -1.838566 -0.998890 3.122874 5.774845 -4.751956 4.304258 2.043579 -3.846702 -2.389222 1.602113 0.156498 21.042729 1.014093 -2.815056 8.774642 -15.336634 14.057477 -2.311886 -71.095225 -17.551056 16.570022 29.569494 -40.163049 -33.878214 -8.248185 -26.261962 -9.584257 12.254104 -17.405325 0.127639 65.288011 -6.669233 7.185957 -11.194318 26.397347 -12.551729 10.545705 15.362314 -18.861085 
26.393377 62.257744 96.767738 -54.036880 2.977953 87.585637 0.947857 -0.317961 -3.286088 -0.641877 -3.892067 8.532887 -4.257575 8.439868 -3.839247 nan nan nan 1.134579 0.526188 -6.932976 2.450185 0.981784 8.017592 8.116143 -1.788584 3.557441 nan nan nan -1.860824 -0.837435 2.894096 5.815602 -4.581923 4.420154 2.072772 -3.715750 -2.224518 1.588035 -0.052592 21.091377 0.995990 -2.910268 8.674142 -15.267224 14.180806 -2.218147 -71.548569 -17.108018 16.671344 28.954150 -39.701838 -33.039852 -8.400058 -25.912581 -9.838234 12.133082 -17.427659 0.129790 65.401422 -6.658242 7.125648 -11.105553 26.643366 -12.429662 10.429785 15.415863 -19.026838 
26.170088 62.170692 96.790222 -54.167157 2.969006 87.716214 0.957342 -0.341177 -3.090232 -0.601599 -3.904772 8.197965 -4.201639 8.545347 -3.689358 nan nan nan 1.114069 0.417306 -6.685769 2.552946 1.056652 7.514754 8.130903 -1.744379 3.762019 nan nan nan -1.763451 -0.653860 2.654254 5.785003 -4.431303 4.618551 2.030749 -3.536601 -2.196089 1.567829 -0.161600 21.188610 0.946530 -2.943996 8.580071 -15.165066 14.128171 -2.104522 -71.903317 -16.508406 16.761999 28.294266 -39.209666 -32.367193 -8.374409 -25.596835 -10.044860 11.943087 -17.362561 0.018798 65.529158 -6.888819 7.075543 -10.949266 26.932930 -12.314220 10.499260 15.470593 -19.197698 
26.001225 62.104191 96.803032 -54.290593 2.939706 87.929728 0.900630 -0.416416 -3.099640 -0.480643 -3.832220 7.989307 -4.114494 8.566562 -3.387929 nan nan nan 1.074350 0.325230 -6.654779 2.636420 1.135564 7.182733 8.094961 -1.662790 3.928614 nan nan nan -1.585786 -0.541014 2.543220 5.705336 -4.336450 4.616370 1.905172 -3.343348 -2.226879 1.573130 -0.157031 21.284560 0.994383 -2.851742 8.699357 -15.059508 14.233095 -2.018838 -72.109250 -15.890605 16.848074 27.424942 -38.647728 -31.601375 -8.219988 -25.341165 -10.537283 11.831792 -17.354437 -0.003183 65.562685 -6.958326 7.122922 -10.712931 27.259456 -12.122952 10.441050 15.557619 -19.115473 
25.802423 62.053219 96.803528 -54.410856 2.956667 88.086635 0.951983 -0.370849 -3.104670 -0.434518 -3.862398 7.959602 -4.156021 8.593017 -3.480734 nan nan nan 1.161235 0.261451 -6.527206 2.628033 1.289366 6.844890 8.051064 -1.637803 3.978042 nan nan nan -1.436252 -0.443295 2.485675 5.654760 -4.237391 4.505806 1.792212 -3.167325 -2.163785 1.612260 -0.096361 21.518152 1.099746 -2.909014 8.798813 -14.795532 14.349644 -1.854760 -72.386092 -15.361782 16.884247 26.348089 -37.846131 -30.527564 -7.764851 -25.184324 -11.222410 11.714299 -17.309572 0.036065 65.580414 -6.969700 7.140346 -10.385825 27.663097 -11.745153 10.029487 15.802497 -19.217664 
25.558165 62.007740 96.784065 -54.608230 2.969529 88.194573 1.081319 -0.126321 -3.030588 -0.465804 -3.895458 7.943420 -4.654595 8.709059 -3.612242 nan nan nan 1.276976 0.271550 -6.281110 2.580147 1.530952 6.372424 7.987929 -1.672070 4.118995 nan nan nan -1.373197 -0.320269 2.424220 5.659928 -4.051273 4.359132 1.716671 -3.019079 -1.938420 1.652790 -0.116338 21.695716 1.086330 -3.003752 8.745813 -14.616380 14.533194 -1.812127 -72.601376 -14.807997 17.076639 25.204014 -36.999115 -29.385296 -7.419926 -24.916866 -12.493031 11.683859 -17.298560 -0.113574 65.470492 -7.086780 7.342608 -10.081108 28.208900 -11.260826 9.494012 15.857438 -19.682255 
25.335320 61.970306 96.762627 -54.758818 3.005925 88.324372 1.276929 0.079819 -3.030029 -0.469067 -3.688873 7.983573 -5.719471 8.907838 -3.427297 nan nan nan 1.363471 0.325603 -6.131902 2.607103 1.650575 6.027893 7.938606 -1.626536 4.228265 nan nan nan -1.321050 -0.204097 2.328333 5.690959 -3.887751 4.208368 1.667812 -2.911866 -1.627598 1.656688 -0.142724 21.710598 1.047596 -3.017656 8.563639 -14.505571 14.707989 -1.726067 -72.694206 -14.289315 17.382721 23.925042 -36.209283 -28.161728 -6.793218 -24.795301 -14.130884 11.789510 -17.208666 -0.252122 65.203926 -7.139325 7.616552 -9.862163 28.879966 -10.993518 8.851954 16.115294 -20.146998 
25.150888 61.940136 96.767326 -54.791367 2.907394 88.416715 1.199761 -0.039746 -2.921544 -0.578570 -3.888776 7.803146 -4.948661 8.947817 -3.963656 nan nan nan 1.286600 0.229107 -5.970531 2.658116 1.808549 5.740187 8.038850 -1.661043 4.213853 nan nan nan -1.452809 -0.077105 2.406607 5.750359 -3.801733 4.160882 1.684802 -2.834197 -1.625582 1.565453 -0.217413 21.591546 1.022724 -2.859283 8.600470 -14.368975 14.870901 -1.562914 -72.844055 -13.780972 17.329266 22.621656 -35.372004 -27.207253 -6.882563 -24.663123 -14.777162 11.862664 -17.190729 -0.233533 65.024349 -6.985582 7.610686 -9.792696 29.410201 -10.855069 8.807692 16.246875 -19.924137 
